<?xml version="1.0" encoding="UTF-8"?>
<svg version="1.1" xmlns="http://www.w3.org/2000/svg" width="500" height="500">
<path d="M0 0 C0.69971924 0.15686279 1.39943848 0.31372559 2.12036133 0.4753418 C5.98827332 1.41363109 9.35853125 2.62125006 12.92578125 4.39453125 C17.8152885 6.65649463 21.89780943 6.52457797 27.1875 6.1875 C36.0491629 5.90789243 43.62840785 6.72159826 51.5 11.25 C53.875 13.92578125 53.875 13.92578125 55.5 16.25 C51.95917084 18.3744975 48.55008109 18.71508363 44.5 19.25 C43.2121803 20.3298409 43.2121803 20.3298409 43.203125 22.8984375 C43.56169387 26.9464913 45.11392525 29.53908952 47.25 32.875 C57.36842396 49.67016176 58.94481379 68.14442294 56.6875 87.375 C56.19670843 92.09737353 56.19670843 92.09737353 58.5625 96.125 C60.0165625 97.176875 60.0165625 97.176875 61.5 98.25 C65.97830878 102.8121274 73.5 110.62929694 73.5 117.25 C65.45263294 116.92810532 58.69977924 113.55664018 51.5 110.25 C51.01789063 110.683125 50.53578125 111.11625 50.0390625 111.5625 C49.40742188 112.119375 48.77578125 112.67625 48.125 113.25 C47.49851562 113.806875 46.87203125 114.36375 46.2265625 114.9375 C44.5 116.25 44.5 116.25 42.5 116.25 C40.90641041 110.60000054 42.21749867 106.45808835 44.5 101.25 C45.05171875 100.44691406 45.6034375 99.64382813 46.171875 98.81640625 C48.30209778 94.70006399 46.81580299 91.84059084 45.578125 87.56640625 C42.32656137 77.56431377 38.59119507 68.86713342 32.5 60.25 C31.95472656 59.45722656 31.40945313 58.66445313 30.84765625 57.84765625 C22.75688979 46.71095418 11.37519301 40.61486772 -0.5 34.25 C3.2547235 38.70805787 6.90872887 42.63263487 11.5 46.25 C11.5 46.91 11.5 47.57 11.5 48.25 C2.37651687 48.05920473 -5.36073791 46.5515861 -11.890625 39.765625 C-12.68984375 38.87359375 -13.4890625 37.9815625 -14.3125 37.0625 C-19.03968199 32.04635234 -22.52982989 31.14601938 -29.27734375 30.609375 C-32.5620097 30.24308498 -34.97224383 29.41190655 -38 28.125 C-44.13658055 25.67761928 -49.98291286 25.87700296 -56.5 26.25 C-56.83 24.6 -57.16 22.95 -57.5 21.25 C-56.98050781 20.87488281 -56.46101563 20.49976563 -55.92578125 20.11328125 C-52.79076281 17.81272244 -49.84429781 15.60335828 -47.125 12.8125 C-33.88095599 -0.11620963 -17.77268098 -4.06681101 0 0 Z " fill="#020202" transform="translate(373.5,197.75)"/>
<path d="M0 0 C5.83541167 -0.06910356 11.66938706 -0.12876741 17.50488281 -0.16479492 C19.4873538 -0.17982344 21.46979186 -0.20025198 23.45214844 -0.22631836 C26.31193193 -0.26296383 29.17127344 -0.27978604 32.03125 -0.29296875 C32.90865845 -0.30845261 33.78606689 -0.32393646 34.69006348 -0.33988953 C40.46645881 -0.34144723 44.75961083 0.5021932 50 3 C52.1803075 6.27046125 52.68959439 8.1199299 53 12 C52.04777571 15.14966497 50.83672889 17.24490667 49 20 C49.804375 20.309375 50.60875 20.61875 51.4375 20.9375 C54 22 54 22 55 23 C55.70212766 30.0212766 55.70212766 30.0212766 52.9375 33.875 C46.71257948 38.37813399 40.31727913 38.27985128 32.91015625 38.1953125 C31.4933683 38.19106766 31.4933683 38.19106766 30.04795837 38.18673706 C27.05267276 38.17560684 24.05769414 38.1505156 21.0625 38.125 C19.0227908 38.11496095 16.98307688 38.10583672 14.94335938 38.09765625 C9.96202823 38.0773987 4.98135484 38.03823641 0 38 C0 25.46 0 12.92 0 0 Z M17 10 C17 11.65 17 13.3 17 15 C19.62561109 15.08074203 22.24875676 15.1403623 24.875 15.1875 C25.62136719 15.21263672 26.36773437 15.23777344 27.13671875 15.26367188 C29.56221828 15.3298764 29.56221828 15.3298764 33 15 C33.66 14.01 34.32 13.02 35 12 C33.03464283 9.58877632 33.03464283 9.58877632 29.3046875 9.8046875 C27.82799892 9.817991 26.35137642 9.84185165 24.875 9.875 C23.74384766 9.88853516 23.74384766 9.88853516 22.58984375 9.90234375 C20.72642746 9.9259313 18.86317407 9.96180281 17 10 Z M17 23 C17 24.65 17 26.3 17 28 C19.79173055 28.02690104 22.58320348 28.04679053 25.375 28.0625 C26.56609375 28.07506836 26.56609375 28.07506836 27.78125 28.08789062 C32.02392222 28.23040151 32.02392222 28.23040151 36 27 C35.67 25.68 35.34 24.36 35 23 C29.06 23 23.12 23 17 23 Z " fill="#010101" transform="translate(54,260)"/>
<path d="M0 0 C4.1901377 3.31719235 5.45196987 5.98272378 7 11 C4.10359882 11.08120751 1.20949088 11.14059421 -1.6875 11.1875 C-2.50412109 11.21263672 -3.32074219 11.23777344 -4.16210938 11.26367188 C-9.08582021 11.32347403 -11.86520637 10.91246412 -16 8 C-20.14953888 7.63600536 -23.56297069 7.45405236 -27 10 C-29.0815902 12.67633026 -28.99587591 14.11753668 -28.875 17.5625 C-28.31827182 20.96914234 -28.31827182 20.96914234 -26.3046875 22.703125 C-23.42231027 24.32507287 -21.53454932 24.30480533 -18.25 24.1875 C-17.26515625 24.16042969 -16.2803125 24.13335937 -15.265625 24.10546875 C-14.14414062 24.05326172 -14.14414062 24.05326172 -13 24 C-13.99 23.67 -14.98 23.34 -16 23 C-16 20.69 -16 18.38 -16 16 C-8.41 16 -0.82 16 7 16 C7.020625 19.114375 7.04125 22.22875 7.0625 25.4375 C7.071604 26.42032959 7.08070801 27.40315918 7.09008789 28.41577148 C7.09258545 29.18477783 7.09508301 29.95378418 7.09765625 30.74609375 C7.10289307 31.53685303 7.10812988 32.3276123 7.11352539 33.14233398 C7 35 7 35 6 36 C0.63576159 36.35761589 0.63576159 36.35761589 -2 34.875 C-4.07133731 33.69474857 -4.07133731 33.69474857 -6.54296875 34.92578125 C-10.89563923 36.27830598 -14.78482288 36.33039596 -19.3125 36.3125 C-20.11623047 36.32861328 -20.91996094 36.34472656 -21.74804688 36.36132812 C-28.76931231 36.36697677 -34.89959053 34.95460597 -40.875 31.1875 C-45.34266778 26.58843023 -46.6118406 21.77085414 -47.0625 15.52734375 C-46.92812184 10.09342681 -45.10011677 6.33797985 -41.6875 2.1875 C-31.11165394 -6.42074679 -11.54626903 -7.35415891 0 0 Z " fill="#020202" transform="translate(314,263)"/>
<path d="M0 0 C14.85 0 29.7 0 45 0 C45 3.3 45 6.6 45 10 C35.76 10 26.52 10 17 10 C17 11.65 17 13.3 17 15 C24.92 15 32.84 15 41 15 C41 17.64 41 20.28 41 23 C33.08 23 25.16 23 17 23 C17 24.65 17 26.3 17 28 C26.9 28 36.8 28 47 28 C47 31.3 47 34.6 47 38 C31.49 38 15.98 38 0 38 C0 25.46 0 12.92 0 0 Z " fill="#000000" transform="translate(114,260)"/>
<path d="M0 0 C5.61 0 11.22 0 17 0 C17.02578125 1.61390625 17.0515625 3.2278125 17.078125 4.890625 C17.13440338 7.01044381 17.19175077 9.13023443 17.25 11.25 C17.26417969 12.31347656 17.27835938 13.37695312 17.29296875 14.47265625 C17.32519531 15.49746094 17.35742188 16.52226562 17.390625 17.578125 C17.41157227 18.52075195 17.43251953 19.46337891 17.45410156 20.43457031 C18.15472864 23.72714156 19.37613741 24.94731838 22 27 C26.10777749 27.50299316 27.50875983 27.32749345 31 25 C31.9731681 22.0804957 32.1929546 19.94555049 32.31640625 16.89453125 C32.37924805 15.42016602 32.37924805 15.42016602 32.44335938 13.91601562 C32.48267578 12.89185547 32.52199219 11.86769531 32.5625 10.8125 C32.62727539 9.25885742 32.62727539 9.25885742 32.69335938 7.67382812 C32.79944263 5.11604298 32.90022586 2.55803902 33 0 C38.61 0 44.22 0 50 0 C50.08156579 3.64629287 50.14077504 7.29072832 50.1875 10.9375 C50.21263672 11.95908203 50.23777344 12.98066406 50.26367188 14.03320312 C50.32847665 20.79450104 50.20845647 28.11997834 45.68896484 33.58544922 C39.62350732 39.04731975 32.91973752 39.36345073 25.1875 39.375 C23.91036133 39.41173828 23.91036133 39.41173828 22.60742188 39.44921875 C15.27160253 39.48274115 8.91679377 37.84200418 3.5625 32.625 C-0.50705804 25.7881425 -0.24348889 19.36323616 -0.125 11.625 C-0.11597656 10.50738281 -0.10695312 9.38976562 -0.09765625 8.23828125 C-0.07418457 5.49209488 -0.03831655 2.74601937 0 0 Z " fill="#010101" transform="translate(214,260)"/>
<path d="M0 0 C3.55003599 0.17687406 5.94312454 0.54332656 8.65234375 2.94262695 C12.21963184 7.4691312 14.80426327 12.57401655 17.42626953 17.6862793 C19.70610493 21.94436803 22.40774999 25.90565087 25.10107422 29.90991211 C29.85107422 37.04610363 29.85107422 37.04610363 29.85107422 39.34741211 C27.07862408 39.48228806 24.31270334 39.58142018 21.53857422 39.65991211 C20.75289063 39.70180664 19.96720703 39.74370117 19.15771484 39.78686523 C16.95219774 39.83379113 15.00388919 39.8389491 12.85107422 39.34741211 C12.41408203 38.52885742 11.97708984 37.71030273 11.52685547 36.86694336 C10.1254033 34.12263591 10.1254033 34.12263591 7.52954102 33.85546875 C4.4562426 33.67288887 1.42915755 33.66617429 -1.64892578 33.72241211 C-2.70724609 33.70307617 -3.76556641 33.68374023 -4.85595703 33.66381836 C-7.7197251 33.68201257 -10.34636854 33.75303753 -13.14892578 34.34741211 C-14.81049526 36.82141188 -14.81049526 36.82141188 -16.14892578 39.34741211 C-19.21425902 40.01258388 -22.21841526 39.81665664 -25.33642578 39.65991211 C-26.18140625 39.63735352 -27.02638672 39.61479492 -27.89697266 39.59155273 C-29.98171376 39.53266174 -32.06554383 39.44298009 -34.14892578 39.34741211 C-29.25433264 30.79395117 -24.10843707 22.44657927 -18.77392578 14.15991211 C-18.04326352 13.01875995 -17.31279398 11.87748436 -16.58251953 10.73608398 C-11.43953352 2.72248195 -9.68775967 0.40390973 0 0 Z M-2.14892578 13.34741211 C-3.79892578 16.64741211 -5.44892578 19.94741211 -7.14892578 23.34741211 C-3.51892578 23.34741211 0.11107422 23.34741211 3.85107422 23.34741211 C2.20107422 20.04741211 0.55107422 16.74741211 -1.14892578 13.34741211 C-1.47892578 13.34741211 -1.80892578 13.34741211 -2.14892578 13.34741211 Z " fill="#020202" transform="translate(357.14892578125,258.652587890625)"/>
<path d="M0 0 C5.61 0 11.22 0 17 0 C17 9.24 17 18.48 17 28 C26.57 28 36.14 28 46 28 C46 31.3 46 34.6 46 38 C30.82 38 15.64 38 0 38 C0 25.46 0 12.92 0 0 Z " fill="#000000" transform="translate(166,260)"/>
</svg>
